<svg width="40" height="46" xmlns="http://www.w3.org/2000/svg"><g fill="none" fill-rule="evenodd"><path d="M17.341 45.13C8.193 45.13.776 37.714.776 28.565.776 19.416 8.193 12 17.341 12c9.149 0 16.565 7.416 16.565 16.565 0 9.149-7.416 16.565-16.565 16.565z" fill="#000" fill-rule="nonzero"/><path d="M113.88 28.265c-.041-.958-.061-1.924-.061-2.896 0-10.155 2.433-19.345 7.439-28.098 4.857-8.486 10.833-14.998 18.03-19.918 6.782-4.624 14.657-8.584 23.413-11.772 7.782-2.83 16.243-5.642 25.145-8.359a286.639 286.639 0 0 0 17.715-6.035c4.513-1.703 8.56-3.888 12.378-6.688 2.731-1.997 4.83-4.42 6.803-7.849 1.717-2.99 2.588-6.435 2.588-10.242 0-3.955-.987-7.521-3.016-10.91-2.062-3.435-4.732-6.222-8.161-8.523-4.295-2.876-8.25-4.7-12.812-5.912-5.019-1.33-10.83-1.442-16.352-1.442-6.456 0-13.2 1.425-21.87 4.62-7.166 2.642-14 6.413-19.95 9.898l-7.897-9.658c-7.851 5.953-19 12.084-28.302 15.106l.897-5.344-4.341-1.4-4.342 1.4.897 5.344c-9.301-3.022-20.45-9.153-28.301-15.106l-7.899 9.658c-5.95-3.485-12.782-7.256-19.948-9.897-8.67-3.196-15.415-4.621-21.871-4.621-5.521 0-11.333.111-16.352 1.442C3.147-97.726-.807-95.901-5.1-93.025c-3.43 2.3-6.1 5.088-8.162 8.524-2.029 3.388-3.015 6.954-3.015 10.909 0 3.807.87 7.251 2.587 10.242 1.974 3.43 4.072 5.852 6.803 7.85C-3.07-52.702.977-50.517 5.49-48.814c5.739 2.17 11.695 4.2 17.715 6.035 8.902 2.717 17.363 5.53 25.145 8.36 8.756 3.187 16.631 7.147 23.413 11.771 7.197 4.92 13.173 11.432 18.03 19.918 5.006 8.753 7.44 17.943 7.44 28.098 0 .972-.02 1.938-.06 2.896.04.96.06 1.925.06 2.897 0 10.155-2.434 19.345-7.44 28.098-4.857 8.486-10.833 14.998-18.03 19.918-6.782 4.624-14.657 8.584-23.413 11.771-7.782 2.83-16.243 5.643-25.145 8.36a286.638 286.638 0 0 0-17.715 6.035c-4.513 1.703-8.56 3.888-12.378 6.688-2.73 1.997-4.83 4.42-6.803 7.849-1.716 2.99-2.587 6.435-2.587 10.242 0 3.955.986 7.521 3.015 10.91 2.062 3.435 4.732 6.222 8.162 8.523 4.294 2.876 8.248 4.7 12.811 5.912 5.02 1.33 10.831 1.442 16.352 1.442 6.456 0 13.2-1.425 21.871-4.621 7.166-2.64 13.998-6.412 19.948-9.897l7.899 9.658c7.85-5.953 19-12.084 28.3-15.106l-.896 5.344 4.342 1.4 4.34-1.4-.896-5.344c9.301 3.022 20.45 9.153 28.302 15.106l7.898-9.658c5.95 3.485 12.783 7.256 19.948 9.897 8.671 3.196 15.415 4.621 21.871 4.621 5.521 0 11.333-.111 16.352-1.442 4.563-1.211 8.517-3.036 12.812-5.912 3.43-2.3 6.1-5.088 8.16-8.524 2.03-3.388 3.017-6.954 3.017-10.91 0-3.806-.871-7.25-2.588-10.241-1.974-3.43-4.072-5.852-6.803-7.85-3.818-2.8-7.865-4.984-12.378-6.687a286.639 286.639 0 0 0-17.715-6.035c-8.902-2.717-17.363-5.53-25.145-8.36-8.756-3.187-16.631-7.147-23.413-11.771-7.197-4.92-13.173-11.432-18.03-19.918-5.006-8.753-7.44-17.943-7.44-28.098 0-.972.021-1.938.061-2.897zM233.98 83.597a85.314 85.314 0 0 1 2.865 2.012c6.367 4.659 11.647 10.505 15.884 17.867 4.621 8.043 6.962 17.005 6.962 26.647 0 9.952-2.588 19.315-7.693 27.828-4.513 7.53-10.667 13.857-18.047 18.8-7.27 4.875-14.401 8.138-22.434 10.27-8.734 2.316-17.24 2.51-24.529 2.51-13.315 0-24.578-3.523-32.905-6.592-10.164-3.745-20.564-9.341-29.71-15.122l7.431-9.086c-5.743-4.457-16.485-10.388-26.28-13.53-9.794 3.142-20.536 9.073-26.279 13.53l7.43 9.086c-9.145 5.78-19.545 11.377-29.709 15.122-8.327 3.07-19.59 6.592-32.905 6.592-7.288 0-15.795-.194-24.53-2.51-8.032-2.132-15.162-5.395-22.433-10.27-7.38-4.943-13.534-11.27-18.047-18.8-5.105-8.513-7.693-17.876-7.693-27.828 0-9.642 2.341-18.604 6.963-26.647 4.236-7.362 9.516-13.208 15.883-17.867.946-.694 1.9-1.364 2.865-2.012-10.022-4.08-23.395-12.13-32.81-21.063l20.626-25.215c5.249 5.624 16.174 12.844 24.595 16.166C-.311 57.512 9.198 59.47 18.55 59.47c7.29 0 13.663-.82 19.48-2.504 5.681-1.646 10.983-4.228 14.927-7.278 3.445-2.663 6.222-6.082 8.743-10.763 1.722-3.2 2.73-6.71 3.054-10.66-.324-3.95-1.332-7.458-3.054-10.66-2.521-4.68-5.298-8.099-8.743-10.762-3.944-3.05-9.246-5.632-14.926-7.279-5.818-1.683-12.19-2.503-19.48-2.503C9.198-2.939-.311-.98-10.52 3.046c-8.421 3.322-19.346 10.542-24.595 16.166L-55.74-6.003c9.415-8.934 22.788-16.984 32.81-21.063a85.313 85.313 0 0 1-2.865-2.012c-6.367-4.659-11.647-10.505-15.883-17.867-4.622-8.043-6.963-17.005-6.963-26.647 0-9.952 2.588-19.316 7.693-27.828 4.513-7.53 10.667-13.857 18.047-18.8 7.27-4.875 14.401-8.138 22.434-10.27 8.734-2.316 17.24-2.51 24.529-2.51 13.315 0 24.578 3.523 32.905 6.592 10.164 3.745 20.564 9.341 29.71 15.122l-7.431 9.086c5.743 4.457 16.485 10.388 26.28 13.53 9.794-3.142 20.536-9.073 26.28-13.53l-7.431-9.086c9.145-5.78 19.545-11.377 29.71-15.122 8.326-3.07 19.59-6.592 32.904-6.592 7.288 0 15.795.194 24.53 2.51 8.032 2.132 15.162 5.395 22.433 10.27 7.38 4.943 13.534 11.27 18.047 18.8 5.105 8.512 7.693 17.876 7.693 27.828 0 9.642-2.34 18.604-6.962 26.647-4.237 7.362-9.517 13.208-15.884 17.867-.946.694-1.9 1.364-2.865 2.012 10.022 4.08 23.395 12.13 32.81 21.063l-20.626 25.215c-5.249-5.624-16.174-12.844-24.595-16.166-10.207-4.027-19.717-5.985-29.07-5.985-7.29 0-13.663.82-19.48 2.503-5.681 1.647-10.983 4.23-14.927 7.279-3.444 2.663-6.222 6.082-8.742 10.763-1.723 3.2-2.73 6.71-3.055 10.66.324 3.95 1.332 7.458 3.055 10.659 2.52 4.68 5.298 8.1 8.742 10.763 3.944 3.05 9.246 5.632 14.926 7.278 5.818 1.684 12.19 2.504 19.48 2.504 9.354 0 18.864-1.958 29.071-5.985 8.421-3.322 19.346-10.542 24.595-16.166l20.626 25.215c-9.415 8.934-22.788 16.984-32.81 21.063zM57.341-113.768c-2.387 0-4.318 1.959-4.318 4.373s1.931 4.372 4.318 4.372c2.386 0 4.324-2.295 4.324-4.712 0-2.414-1.938-4.033-4.324-4.033zm96.37 0c-2.387 0-4.324 1.619-4.324 4.033 0 2.417 1.937 4.712 4.323 4.712 2.387 0 4.318-1.958 4.318-4.372 0-2.414-1.931-4.373-4.318-4.373zm0 284.067c2.386 0 4.317-1.959 4.317-4.373s-1.931-4.372-4.318-4.372c-2.386 0-4.323 2.295-4.323 4.711 0 2.415 1.937 4.034 4.323 4.034zm-96.37 0c2.386 0 4.324-1.62 4.324-4.034 0-2.416-1.938-4.711-4.324-4.711-2.387 0-4.318 1.958-4.318 4.372 0 2.414 1.931 4.373 4.318 4.373z" fill="#000" fill-rule="nonzero"/><g stroke="#000"><path d="M39.027 45.21l-.973-6.462L6.147 1.05c-.348-.11-2.75-.635-4.03.525-.853.773-1.266 1.933-1.24 3.48l31.304 38.086 6.846 2.07z" stroke-width=".96" fill="#FFF"/><path stroke-width=".5" stroke-linecap="square" d="M36.224 39.85L3.398.814M33.864 41.535L1.237 2.575"/><path d="M38.09 38.864c-.486.004-.872.111-1.16.32-.287.21-.5.48-.636.815-.593.07-1.048.215-1.362.434-.314.218-.576.643-.784 1.274-.609.005-1.056.111-1.341.318-.286.208-.478.553-.578 1.036" stroke-width=".5"/><path stroke-width=".96" fill="#000" d="M39.037 45.215l-.32-1.96-1.48 1.24z"/></g></g></svg>